# xmcd
#
# Track frame offsets: 
#        150
#        11331
#        20340
#        31125
#        43514
#        54328
#        65839
#        76612
#        87386
#        97325
#        107253
#        118994
#        130088
#        138246
#        149202
#        161331
#        174094
#        183609
#        194233
#        203842
#        215862
#        227441
#        237064
#        245013
#        254528
#
# Disc length: 3581 seconds
#
# Revision: 0
# Processed by: cddbd v1.5.2PL0 Copyright (c) Steve Scherf et al.
# Submitted via: ExactAudioCopy v0.99pb4
#
DISCID=620dfb19
DTITLE=Johnny Cash - Johnny Cash - Personal File CBS
DYEAR=2006
DGENRE=Country
TTITLE0=The Letter Edged In Black
TTITLE1=There's A Mother Always Waiting At Home
TTITLE2=The Engineers Dying Child
TTITLE3=My Mother Was A Lady
TTITLE4=The Winding Stream
TTITLE5=Far Away Places
TTITLE6=Galway Bay
TTITLE7=When I Stop Dreaming
TTITLE8=Drink To Me Only With Thine Eyes
TTITLE9=A'll Take You Home Again Kathleen
TTITLE10=Missouri Waltz
TTITLE11=Louisiana Man
TTITLE12=Paradise
TTITLE13=I Don't Believe You Wanted To Leave
TTITLE14=Jim, I Wore A Tie Today
TTITLE15=Saginaw, Michigan
TTITLE16=When It's Springtime In Alaska (It's Forty Below)
TTITLE17=Girl In Saskatoon
TTITLE18=The Cremation Of Sam McGee
TTITLE19=Tiger Whitehead
TTITLE20=It's All Over
TTITLE21=A Fast Song
TTITLE22=Virgie
TTITLE23=I Wanted So
TTITLE24=It Takes One To Know Me
EXTD=
EXTT0=
EXTT1=
EXTT2=
EXTT3=
EXTT4=
EXTT5=
EXTT6=
EXTT7=
EXTT8=
EXTT9=
EXTT10=
EXTT11=
EXTT12=
EXTT13=
EXTT14=
EXTT15=
EXTT16=
EXTT17=
EXTT18=
EXTT19=
EXTT20=
EXTT21=
EXTT22=
EXTT23=
EXTT24=
PLAYORDER=
